<svg version="1.1" viewBox="0.0 0.0 842.0 521.0" fill="none" stroke="none" stroke-linecap="square" stroke-miterlimit="10" width="842" height="521" xmlns:xlink="http://www.w3.org/1999/xlink" xmlns="http://www.w3.org/2000/svg"><path fill="#ffffff" d="M0 0L842.0 0L842.0 521.0L0 521.0L0 0Z" fill-rule="nonzero"/><path stroke="#cccccc" stroke-width="1.0" stroke-linecap="butt" d="M201.5 33.5L201.5 442.5" fill-rule="nonzero"/><path stroke="#cccccc" stroke-width="1.0" stroke-linecap="butt" d="M293.5 33.5L293.5 442.5" fill-rule="nonzero"/><path stroke="#cccccc" stroke-width="1.0" stroke-linecap="butt" d="M385.5 33.5L385.5 442.5" fill-rule="nonzero"/><path stroke="#cccccc" stroke-width="1.0" stroke-linecap="butt" d="M477.5 33.5L477.5 442.5" fill-rule="nonzero"/><path stroke="#cccccc" stroke-width="1.0" stroke-linecap="butt" d="M569.5 33.5L569.5 442.5" fill-rule="nonzero"/><path stroke="#cccccc" stroke-width="1.0" stroke-linecap="butt" d="M661.5 33.5L661.5 442.5" fill-rule="nonzero"/><path stroke="#cccccc" stroke-width="1.0" stroke-linecap="butt" d="M753.5 33.5L753.5 442.5" fill-rule="nonzero"/><path stroke="#333333" stroke-width="1.0" stroke-linecap="butt" d="M110.5 442.5L815.5 442.5" fill-rule="nonzero"/><path stroke="#cccccc" stroke-width="1.0" stroke-linecap="butt" d="M110.5 340.5L815.5 340.5" fill-rule="nonzero"/><path stroke="#cccccc" stroke-width="1.0" stroke-linecap="butt" d="M110.5 238.5L815.5 238.5" fill-rule="nonzero"/><path stroke="#cccccc" stroke-width="1.0" stroke-linecap="butt" d="M110.5 135.5L815.5 135.5" fill-rule="nonzero"/><path stroke="#cccccc" stroke-width="1.0" stroke-linecap="butt" d="M110.5 33.5L815.5 33.5" fill-rule="nonzero"/><clipPath id="id_0"><path d="M110.05 33.05L815.95 33.05L815.95 442.95L110.05 442.95L110.05 33.05Z" clip-rule="nonzero"/></clipPath><path fill="#4285f4" fill-opacity="0.3019608" clip-path="url(#id_0)" d="M110.05 442.43762C110.05 442.43762 110.66356 442.09604 110.97034 441.92526C111.277115 441.75446 112.19746 441.2421 112.81102 440.9005C113.424576 440.55893 115.26525 439.53418 116.49237 438.851C117.71949 438.16785 118.94661 437.48468 120.17373 436.80148C121.40085 436.11832 122.62797 435.43515 123.85509 434.75198C125.08221 434.06882 128.76357 432.01935 131.2178 430.653C133.67203 429.28668 136.12627 427.92035 138.5805 426.55402C141.03474 425.18768 148.39746 421.08868 153.30594 418.35602C158.2144 415.62335 163.12288 412.8907 168.03136 410.15802C172.93983 407.42535 177.84831 404.6927 182.75677 401.96002C187.66525 399.22736 192.57373 396.4947 197.48221 393.76202C202.39067 391.02936 217.1161 382.8314 226.93304 377.36606C236.75 371.90073 305.46866 333.64343 344.73645 311.7821C384.00424 289.92078 423.27203 268.05942 462.53983 246.19807C501.80762 224.33675 541.07544 202.47543 580.3432 180.6141C619.611 158.75278 658.8788 136.89143 698.1466 115.030106C737.4144 93.16877 815.95 49.446106 815.95 49.446106L815.95 442.95C815.95 442.95 737.4144 442.95 698.1466 442.95C658.8788 442.95 619.611 442.95 580.3432 442.95C541.07544 442.95 501.80762 442.95 462.53983 442.95C423.27203 442.95 384.00424 442.95 344.73645 442.95C305.46866 442.95 236.75 442.95 226.93304 442.95C217.1161 442.95 202.39067 442.95 197.48221 442.95C192.57373 442.95 187.66525 442.95 182.75677 442.95C177.84831 442.95 172.93983 442.95 168.03136 442.95C163.12288 442.95 158.2144 442.95 153.30594 442.95C148.39746 442.95 141.03474 442.95 138.5805 442.95C136.12627 442.95 133.67203 442.95 131.2178 442.95C128.76357 442.95 125.08221 442.95 123.85509 442.95C122.62797 442.95 121.40085 442.95 120.17373 442.95C118.94661 442.95 117.71949 442.95 116.49237 442.95C115.26525 442.95 113.424576 442.95 112.81102 442.95C112.19746 442.95 111.277115 442.95 110.97034 442.95C110.66356 442.95 110.05 442.95 110.05 442.95Z" fill-rule="nonzero"/><path fill="#ea4335" fill-opacity="0.3019608" clip-path="url(#id_0)" d="M110.05 442.43762C110.05 442.43762 110.66356 442.09604 110.97034 441.92523C111.277115 441.75446 112.19746 441.24203 112.81102 440.90045C113.424576 440.55887 115.26525 439.53418 116.49237 438.851C117.71949 438.16785 118.94661 437.48462 120.17373 436.80145C121.40085 436.11826 122.62797 435.43506 123.85509 434.7519C125.08221 434.06876 128.76357 432.01935 131.2178 430.65305C133.67203 429.28674 136.12627 427.92038 138.5805 426.55408C141.03474 425.18777 148.39746 421.08902 153.30594 418.35645C158.2144 415.62387 163.12288 412.8912 168.03136 410.15857C172.93983 407.42593 177.84831 404.6933 182.75677 401.96066C187.66525 399.22803 192.57373 396.49542 197.48221 393.7628C202.39067 391.03015 217.1161 382.83228 226.93304 377.36703C236.75 371.90176 305.46866 333.6452 344.73645 311.784C384.00424 289.92282 423.27203 268.06107 462.53983 246.19981C501.80762 224.33858 541.07544 202.4779 580.3432 180.61658C619.611 158.75526 658.8788 136.89334 698.1466 115.03191C737.4144 93.170494 815.95 49.448063 815.95 49.448063L815.95 442.95C815.95 442.95 737.4144 442.95 698.1466 442.95C658.8788 442.95 619.611 442.95 580.3432 442.95C541.07544 442.95 501.80762 442.95 462.53983 442.95C423.27203 442.95 384.00424 442.95 344.73645 442.95C305.46866 442.95 236.75 442.95 226.93304 442.95C217.1161 442.95 202.39067 442.95 197.48221 442.95C192.57373 442.95 187.66525 442.95 182.75677 442.95C177.84831 442.95 172.93983 442.95 168.03136 442.95C163.12288 442.95 158.2144 442.95 153.30594 442.95C148.39746 442.95 141.03474 442.95 138.5805 442.95C136.12627 442.95 133.67203 442.95 131.2178 442.95C128.76357 442.95 125.08221 442.95 123.85509 442.95C122.62797 442.95 121.40085 442.95 120.17373 442.95C118.94661 442.95 117.71949 442.95 116.49237 442.95C115.26525 442.95 113.424576 442.95 112.81102 442.95C112.19746 442.95 111.277115 442.95 110.97034 442.95C110.66356 442.95 110.05 442.95 110.05 442.95Z" fill-rule="nonzero"/><path stroke="#4285f4" stroke-width="2.0" stroke-linecap="butt" clip-path="url(#id_0)" d="M110.05 442.43762C110.05 442.43762 110.66356 442.09604 110.97034 441.92526C111.277115 441.75446 112.19746 441.2421 112.81102 440.9005C113.424576 440.55893 115.26525 439.53418 116.49237 438.851C117.71949 438.16785 118.94661 437.48468 120.17373 436.80148C121.40085 436.11832 122.62797 435.43515 123.85509 434.75198C125.08221 434.06882 128.76357 432.01935 131.2178 430.653C133.67203 429.28668 136.12627 427.92035 138.5805 426.55402C141.03474 425.18768 148.39746 421.08868 153.30594 418.35602C158.2144 415.62335 163.12288 412.8907 168.03136 410.15802C172.93983 407.42535 177.84831 404.6927 182.75677 401.96002C187.66525 399.22736 192.57373 396.4947 197.48221 393.76202C202.39067 391.02936 217.1161 382.8314 226.93304 377.36606C236.75 371.90073 305.46866 333.64343 344.73645 311.7821C384.00424 289.92078 423.27203 268.05942 462.53983 246.19807C501.80762 224.33675 541.07544 202.47543 580.3432 180.6141C619.611 158.75278 658.8788 136.89143 698.1466 115.030106C737.4144 93.16877 815.95 49.446106 815.95 49.446106" fill-rule="nonzero"/><path stroke="#ea4335" stroke-width="2.0" stroke-linecap="butt" clip-path="url(#id_0)" d="M110.05 442.43762C110.05 442.43762 110.66356 442.09604 110.97034 441.92523C111.277115 441.75446 112.19746 441.24203 112.81102 440.90045C113.424576 440.55887 115.26525 439.53418 116.49237 438.851C117.71949 438.16785 118.94661 437.48462 120.17373 436.80145C121.40085 436.11826 122.62797 435.43506 123.85509 434.7519C125.08221 434.06876 128.76357 432.01935 131.2178 430.65305C133.67203 429.28674 136.12627 427.92038 138.5805 426.55408C141.03474 425.18777 148.39746 421.08902 153.30594 418.35645C158.2144 415.62387 163.12288 412.8912 168.03136 410.15857C172.93983 407.42593 177.84831 404.6933 182.75677 401.96066C187.66525 399.22803 192.57373 396.49542 197.48221 393.7628C202.39067 391.03015 217.1161 382.83228 226.93304 377.36703C236.75 371.90176 305.46866 333.6452 344.73645 311.784C384.00424 289.92282 423.27203 268.06107 462.53983 246.19981C501.80762 224.33858 541.07544 202.4779 580.3432 180.61658C619.611 158.75526 658.8788 136.89334 698.1466 115.03191C737.4144 93.170494 815.95 49.448063 815.95 49.448063" fill-rule="nonzero"/><path fill="#4285f4" clip-path="url(#id_0)" d="M114.55 442.43762C114.55 444.9229 112.53528 446.93762 110.05 446.93762C107.56472 446.93762 105.55 444.9229 105.55 442.43762C105.55 439.95233 107.56472 437.93762 110.05 437.93762C112.53528 437.93762 114.55 439.95233 114.55 442.43762Z" fill-rule="nonzero"/><path fill="#4285f4" clip-path="url(#id_0)" d="M115.47034 441.92526C115.47034 444.41052 113.45562 446.42526 110.97034 446.42526C108.485054 446.42526 106.47034 444.41052 106.47034 441.92526C106.47034 439.43997 108.485054 437.42526 110.97034 437.42526C113.45562 437.42526 115.47034 439.43997 115.47034 441.92526Z" fill-rule="nonzero"/><path fill="#4285f4" clip-path="url(#id_0)" d="M117.31102 440.9005C117.31102 443.38577 115.296295 445.4005 112.81102 445.4005C110.32574 445.4005 108.31102 443.38577 108.31102 440.9005C108.31102 438.41522 110.32574 436.4005 112.81102 436.4005C115.296295 436.4005 117.31102 438.41522 117.31102 440.9005Z" fill-rule="nonzero"/><path fill="#4285f4" clip-path="url(#id_0)" d="M120.99237 438.851C120.99237 441.33627 118.97765 443.351 116.49237 443.351C114.00709 443.351 111.99237 441.33627 111.99237 438.851C111.99237 436.36572 114.00709 434.351 116.49237 434.351C118.97765 434.351 120.99237 436.36572 120.99237 438.851Z" fill-rule="nonzero"/><path fill="#4285f4" clip-path="url(#id_0)" d="M124.67373 436.80148C124.67373 439.28677 122.65901 441.30148 120.17373 441.30148C117.688446 441.30148 115.67373 439.28677 115.67373 436.80148C115.67373 434.31622 117.688446 432.30148 120.17373 432.30148C122.65901 432.30148 124.67373 434.31622 124.67373 436.80148Z" fill-rule="nonzero"/><path fill="#4285f4" clip-path="url(#id_0)" d="M128.35509 434.75198C128.35509 437.23727 126.34036 439.25198 123.85509 439.25198C121.369804 439.25198 119.35509 437.23727 119.35509 434.75198C119.35509 432.26672 121.369804 430.25198 123.85509 430.25198C126.34036 430.25198 128.35509 432.26672 128.35509 434.75198Z" fill-rule="nonzero"/><path fill="#4285f4" clip-path="url(#id_0)" d="M135.7178 430.653C135.7178 433.13828 133.70308 435.153 131.2178 435.153C128.73251 435.153 126.7178 433.13828 126.7178 430.653C126.7178 428.16772 128.73251 426.153 131.2178 426.153C133.70308 426.153 135.7178 428.16772 135.7178 430.653Z" fill-rule="nonzero"/><path fill="#4285f4" clip-path="url(#id_0)" d="M143.0805 426.55402C143.0805 429.03928 141.0658 431.05402 138.5805 431.05402C136.09523 431.05402 134.0805 429.03928 134.0805 426.55402C134.0805 424.06873 136.09523 422.05402 138.5805 422.05402C141.0658 422.05402 143.0805 424.06873 143.0805 426.55402Z" fill-rule="nonzero"/><path fill="#4285f4" clip-path="url(#id_0)" d="M157.80594 418.35602C157.80594 420.8413 155.79121 422.85602 153.30594 422.85602C150.82065 422.85602 148.80594 420.8413 148.80594 418.35602C148.80594 415.87073 150.82065 413.85602 153.30594 413.85602C155.79121 413.85602 157.80594 415.87073 157.80594 418.35602Z" fill-rule="nonzero"/><path fill="#4285f4" clip-path="url(#id_0)" d="M172.53136 410.15802C172.53136 412.6433 170.51663 414.65802 168.03136 414.65802C165.54608 414.65802 163.53136 412.6433 163.53136 410.15802C163.53136 407.67273 165.54608 405.65802 168.03136 405.65802C170.51663 405.65802 172.53136 407.67273 172.53136 410.15802Z" fill-rule="nonzero"/><path fill="#4285f4" clip-path="url(#id_0)" d="M187.25677 401.96002C187.25677 404.4453 185.24207 406.46002 182.75677 406.46002C180.2715 406.46002 178.25677 404.4453 178.25677 401.96002C178.25677 399.47473 180.2715 397.46002 182.75677 397.46002C185.24207 397.46002 187.25677 399.47473 187.25677 401.96002Z" fill-rule="nonzero"/><path fill="#4285f4" clip-path="url(#id_0)" d="M201.98221 393.76202C201.98221 396.2473 199.96748 398.26202 197.48221 398.26202C194.99692 398.26202 192.98221 396.2473 192.98221 393.76202C192.98221 391.27676 194.99692 389.26202 197.48221 389.26202C199.96748 389.26202 201.98221 391.27676 201.98221 393.76202Z" fill-rule="nonzero"/><path fill="#4285f4" clip-path="url(#id_0)" d="M231.43304 377.36606C231.43304 379.85132 229.41833 381.86606 226.93304 381.86606C224.44777 381.86606 222.43304 379.85132 222.43304 377.36606C222.43304 374.88077 224.44777 372.86606 226.93304 372.86606C229.41833 372.86606 231.43304 374.88077 231.43304 377.36606Z" fill-rule="nonzero"/><path fill="#4285f4" clip-path="url(#id_0)" d="M349.23645 311.7821C349.23645 314.2674 347.2217 316.2821 344.73645 316.2821C342.25116 316.2821 340.23645 314.2674 340.23645 311.7821C340.23645 309.2968 342.25116 307.2821 344.73645 307.2821C347.2217 307.2821 349.23645 309.2968 349.23645 311.7821Z" fill-rule="nonzero"/><path fill="#4285f4" clip-path="url(#id_0)" d="M467.03983 246.19807C467.03983 248.68336 465.02512 250.69807 462.53983 250.69807C460.05453 250.69807 458.03983 248.68336 458.03983 246.19807C458.03983 243.7128 460.05453 241.69807 462.53983 241.69807C465.02512 241.69807 467.03983 243.7128 467.03983 246.19807Z" fill-rule="nonzero"/><path fill="#4285f4" clip-path="url(#id_0)" d="M584.8432 180.6141C584.8432 183.09938 582.8285 185.1141 580.3432 185.1141C577.8579 185.1141 575.8432 183.09938 575.8432 180.6141C575.8432 178.12881 577.8579 176.1141 580.3432 176.1141C582.8285 176.1141 584.8432 178.12881 584.8432 180.6141Z" fill-rule="nonzero"/><path fill="#4285f4" clip-path="url(#id_0)" d="M702.6466 115.030106C702.6466 117.51539 700.6319 119.530106 698.1466 119.530106C695.6613 119.530106 693.6466 117.51539 693.6466 115.030106C693.6466 112.54482 695.6613 110.530106 698.1466 110.530106C700.6319 110.530106 702.6466 112.54482 702.6466 115.030106Z" fill-rule="nonzero"/><path fill="#4285f4" clip-path="url(#id_0)" d="M820.45 49.446106C820.45 51.931385 818.4353 53.946106 815.95 53.946106C813.4647 53.946106 811.45 51.931385 811.45 49.446106C811.45 46.960823 813.4647 44.946106 815.95 44.946106C818.4353 44.946106 820.45 46.960823 820.45 49.446106Z" fill-rule="nonzero"/><path fill="#ea4335" clip-path="url(#id_0)" d="M114.55 442.43762C114.55 444.9229 112.53528 446.93762 110.05 446.93762C107.56472 446.93762 105.55 444.9229 105.55 442.43762C105.55 439.95233 107.56472 437.93762 110.05 437.93762C112.53528 437.93762 114.55 439.95233 114.55 442.43762Z" fill-rule="nonzero"/><path fill="#ea4335" clip-path="url(#id_0)" d="M115.47034 441.92523C115.47034 444.41052 113.45562 446.42523 110.97034 446.42523C108.485054 446.42523 106.47034 444.41052 106.47034 441.92523C106.47034 439.43997 108.485054 437.42523 110.97034 437.42523C113.45562 437.42523 115.47034 439.43997 115.47034 441.92523Z" fill-rule="nonzero"/><path fill="#ea4335" clip-path="url(#id_0)" d="M117.31102 440.90045C117.31102 443.38574 115.296295 445.40045 112.81102 445.40045C110.32574 445.40045 108.31102 443.38574 108.31102 440.90045C108.31102 438.4152 110.32574 436.40045 112.81102 436.40045C115.296295 436.40045 117.31102 438.4152 117.31102 440.90045Z" fill-rule="nonzero"/><path fill="#ea4335" clip-path="url(#id_0)" d="M120.99237 438.851C120.99237 441.33627 118.97765 443.351 116.49237 443.351C114.00709 443.351 111.99237 441.33627 111.99237 438.851C111.99237 436.36572 114.00709 434.351 116.49237 434.351C118.97765 434.351 120.99237 436.36572 120.99237 438.851Z" fill-rule="nonzero"/><path fill="#ea4335" clip-path="url(#id_0)" d="M124.67373 436.80145C124.67373 439.2867 122.65901 441.30145 120.17373 441.30145C117.688446 441.30145 115.67373 439.2867 115.67373 436.80145C115.67373 434.31616 117.688446 432.30145 120.17373 432.30145C122.65901 432.30145 124.67373 434.31616 124.67373 436.80145Z" fill-rule="nonzero"/><path fill="#ea4335" clip-path="url(#id_0)" d="M128.35509 434.7519C128.35509 437.23718 126.34036 439.2519 123.85509 439.2519C121.369804 439.2519 119.35509 437.23718 119.35509 434.7519C119.35509 432.26663 121.369804 430.2519 123.85509 430.2519C126.34036 430.2519 128.35509 432.26663 128.35509 434.7519Z" fill-rule="nonzero"/><path fill="#ea4335" clip-path="url(#id_0)" d="M135.7178 430.65305C135.7178 433.13834 133.70308 435.15305 131.2178 435.15305C128.73251 435.15305 126.7178 433.13834 126.7178 430.65305C126.7178 428.1678 128.73251 426.15305 131.2178 426.15305C133.70308 426.15305 135.7178 428.1678 135.7178 430.65305Z" fill-rule="nonzero"/><path fill="#ea4335" clip-path="url(#id_0)" d="M143.0805 426.55408C143.0805 429.03937 141.0658 431.05408 138.5805 431.05408C136.09523 431.05408 134.0805 429.03937 134.0805 426.55408C134.0805 424.0688 136.09523 422.05408 138.5805 422.05408C141.0658 422.05408 143.0805 424.0688 143.0805 426.55408Z" fill-rule="nonzero"/><path fill="#ea4335" clip-path="url(#id_0)" d="M157.80594 418.35645C157.80594 420.84174 155.79121 422.85645 153.30594 422.85645C150.82065 422.85645 148.80594 420.84174 148.80594 418.35645C148.80594 415.87115 150.82065 413.85645 153.30594 413.85645C155.79121 413.85645 157.80594 415.87115 157.80594 418.35645Z" fill-rule="nonzero"/><path fill="#ea4335" clip-path="url(#id_0)" d="M172.53136 410.15857C172.53136 412.64386 170.51663 414.65857 168.03136 414.65857C165.54608 414.65857 163.53136 412.64386 163.53136 410.15857C163.53136 407.67328 165.54608 405.65857 168.03136 405.65857C170.51663 405.65857 172.53136 407.67328 172.53136 410.15857Z" fill-rule="nonzero"/><path fill="#ea4335" clip-path="url(#id_0)" d="M187.25677 401.96066C187.25677 404.44595 185.24207 406.46066 182.75677 406.46066C180.2715 406.46066 178.25677 404.44595 178.25677 401.96066C178.25677 399.47537 180.2715 397.46066 182.75677 397.46066C185.24207 397.46066 187.25677 399.47537 187.25677 401.96066Z" fill-rule="nonzero"/><path fill="#ea4335" clip-path="url(#id_0)" d="M201.98221 393.7628C201.98221 396.24808 199.96748 398.2628 197.48221 398.2628C194.99692 398.2628 192.98221 396.24808 192.98221 393.7628C192.98221 391.2775 194.99692 389.2628 197.48221 389.2628C199.96748 389.2628 201.98221 391.2775 201.98221 393.7628Z" fill-rule="nonzero"/><path fill="#ea4335" clip-path="url(#id_0)" d="M231.43304 377.36703C231.43304 379.8523 229.41833 381.86703 226.93304 381.86703C224.44777 381.86703 222.43304 379.8523 222.43304 377.36703C222.43304 374.88174 224.44777 372.86703 226.93304 372.86703C229.41833 372.86703 231.43304 374.88174 231.43304 377.36703Z" fill-rule="nonzero"/><path fill="#ea4335" clip-path="url(#id_0)" d="M349.23645 311.784C349.23645 314.2693 347.2217 316.284 344.73645 316.284C342.25116 316.284 340.23645 314.2693 340.23645 311.784C340.23645 309.29874 342.25116 307.284 344.73645 307.284C347.2217 307.284 349.23645 309.29874 349.23645 311.784Z" fill-rule="nonzero"/><path fill="#ea4335" clip-path="url(#id_0)" d="M467.03983 246.19981C467.03983 248.6851 465.02512 250.69981 462.53983 250.69981C460.05453 250.69981 458.03983 248.6851 458.03983 246.19981C458.03983 243.71454 460.05453 241.69981 462.53983 241.69981C465.02512 241.69981 467.03983 243.71454 467.03983 246.19981Z" fill-rule="nonzero"/><path fill="#ea4335" clip-path="url(#id_0)" d="M584.8432 180.61658C584.8432 183.10187 582.8285 185.11658 580.3432 185.11658C577.8579 185.11658 575.8432 183.10187 575.8432 180.61658C575.8432 178.1313 577.8579 176.11658 580.3432 176.11658C582.8285 176.11658 584.8432 178.1313 584.8432 180.61658Z" fill-rule="nonzero"/><path fill="#ea4335" clip-path="url(#id_0)" d="M702.6466 115.03191C702.6466 117.5172 700.6319 119.53191 698.1466 119.53191C695.6613 119.53191 693.6466 117.5172 693.6466 115.03191C693.6466 112.54664 695.6613 110.53191 698.1466 110.53191C700.6319 110.53191 702.6466 112.54664 702.6466 115.03191Z" fill-rule="nonzero"/><path fill="#ea4335" clip-path="url(#id_0)" d="M820.45 49.448063C820.45 51.933342 818.4353 53.948063 815.95 53.948063C813.4647 53.948063 811.45 51.933342 811.45 49.448063C811.45 46.96278 813.4647 44.948063 815.95 44.948063C818.4353 44.948063 820.45 46.96278 820.45 49.448063Z" fill-rule="nonzero"/><path fill="#000000" d="M445.0625 488.9344L446.1875 489.23126Q445.82812 490.6219 444.90625 491.35626Q443.98438 492.09064 442.64062 492.09064Q441.25 492.09064 440.375 491.52814Q439.5 490.96564 439.04688 489.90314Q438.59375 488.825 438.59375 487.59064Q438.59375 486.2469 439.10938 485.2469Q439.625 484.2469 440.5625 483.73126Q441.51562 483.21564 442.65625 483.21564Q443.9375 483.21564 444.8125 483.8719Q445.70312 484.52814 446.04688 485.71564L444.92188 485.98126Q444.625 485.04376 444.04688 484.6219Q443.48438 484.1844 442.625 484.1844Q441.64062 484.1844 440.96875 484.66876Q440.3125 485.1375 440.03125 485.9344Q439.76562 486.73126 439.76562 487.59064Q439.76562 488.6844 440.07812 489.4969Q440.40625 490.3094 441.07812 490.71564Q441.75 491.1219 442.54688 491.1219Q443.5 491.1219 444.15625 490.575Q444.82812 490.02814 445.0625 488.9344ZM447.875 491.95L447.875 483.35626L451.10938 483.35626Q452.09375 483.35626 452.6875 483.6219Q453.28125 483.8875 453.60938 484.4344Q453.95312 484.96564 453.95312 485.5594Q453.95312 486.10626 453.65625 486.59064Q453.35938 487.075 452.75 487.3719Q453.53125 487.60626 453.9375 488.16876Q454.35938 488.71564 454.35938 489.46564Q454.35938 490.0594 454.10938 490.59064Q453.85938 491.10626 453.48438 491.3875Q453.10938 491.66876 452.53125 491.8094Q451.96875 491.95 451.15625 491.95L447.875 491.95ZM449.01562 486.96564L450.875 486.96564Q451.625 486.96564 451.95312 486.8719Q452.39062 486.7469 452.60938 486.45Q452.82812 486.1375 452.82812 485.6844Q452.82812 485.2625 452.625 484.9344Q452.42188 484.60626 452.03125 484.4969Q451.65625 484.3719 450.73438 484.3719L449.01562 484.3719L449.01562 486.96564ZM449.01562 490.9344L451.15625 490.9344Q451.70312 490.9344 451.92188 490.8875Q452.32812 490.825 452.57812 490.66876Q452.84375 490.4969 453.01562 490.1844Q453.1875 489.8719 453.1875 489.46564Q453.1875 488.98126 452.9375 488.6219Q452.70312 488.2625 452.26562 488.1219Q451.82812 487.98126 451.0 487.98126L449.01562 487.98126L449.01562 490.9344ZM454.98438 491.95L458.28125 483.35626L459.5 483.35626L463.01562 491.95L461.73438 491.95L460.71875 489.34064L457.14062 489.34064L456.1875 491.95L454.98438 491.95ZM457.46875 488.41876L460.375 488.41876L459.48438 486.04376Q459.0625 484.96564 458.875 484.2625Q458.70312 485.09064 458.40625 485.90314L457.46875 488.41876ZM465.54688 489.1844L466.60938 489.09064Q466.6875 489.7469 466.96875 490.15314Q467.25 490.5594 467.82812 490.825Q468.42188 491.075 469.15625 491.075Q469.79688 491.075 470.29688 490.8875Q470.79688 490.6844 471.03125 490.35626Q471.28125 490.0125 471.28125 489.6219Q471.28125 489.21564 471.04688 488.91876Q470.8125 488.60626 470.28125 488.40314Q469.92188 488.2625 468.73438 487.98126Q467.5625 487.7 467.09375 487.45Q466.46875 487.1219 466.17188 486.65314Q465.875 486.16876 465.875 485.575Q465.875 484.9344 466.23438 484.3719Q466.60938 483.79376 467.3125 483.5125Q468.03125 483.21564 468.89062 483.21564Q469.84375 483.21564 470.57812 483.52814Q471.3125 483.825 471.70312 484.4344Q472.09375 485.02814 472.125 485.77814L471.03125 485.85626Q470.9375 485.04376 470.42188 484.6375Q469.92188 484.21564 468.9375 484.21564Q467.90625 484.21564 467.4375 484.59064Q466.96875 484.96564 466.96875 485.4969Q466.96875 485.96564 467.29688 486.2625Q467.625 486.5594 469.0 486.8719Q470.39062 487.1844 470.90625 487.41876Q471.65625 487.77814 472.01562 488.3094Q472.375 488.825 472.375 489.52814Q472.375 490.21564 471.98438 490.825Q471.59375 491.41876 470.85938 491.7625Q470.125 492.09064 469.20312 492.09064Q468.03125 492.09064 467.23438 491.7625Q466.45312 491.41876 466.0 490.73126Q465.5625 490.04376 465.54688 489.1844ZM473.79688 484.575L473.79688 483.35626L474.85938 483.35626L474.85938 484.575L473.79688 484.575ZM473.79688 491.95L473.79688 485.73126L474.85938 485.73126L474.85938 491.95L473.79688 491.95ZM476.23438 491.95L476.23438 491.09064L480.20312 486.54376Q479.51562 486.575 479.0 486.575L476.46875 486.575L476.46875 485.73126L481.5625 485.73126L481.5625 486.41876L478.1875 490.3719L477.53125 491.09064Q478.25 491.04376 478.85938 491.04376L481.75 491.04376L481.75 491.95L476.23438 491.95ZM486.04688 489.95L487.14062 490.075Q486.89062 491.02814 486.1875 491.5594Q485.48438 492.09064 484.40625 492.09064Q483.04688 492.09064 482.23438 491.2469Q481.4375 490.40314 481.4375 488.8875Q481.4375 487.325 482.25 486.46564Q483.0625 485.59064 484.34375 485.59064Q485.59375 485.59064 486.375 486.4344Q487.17188 487.27814 487.17188 488.825Q487.17188 488.91876 487.17188 489.10626L482.53125 489.10626Q482.59375 490.1375 483.10938 490.6844Q483.625 491.21564 484.40625 491.21564Q484.98438 491.21564 485.39062 490.91876Q485.8125 490.60626 486.04688 489.95ZM482.59375 488.2469L486.0625 488.2469Q486.0 487.45 485.67188 487.0594Q485.15625 486.45 484.35938 486.45Q483.625 486.45 483.125 486.9344Q482.64062 487.41876 482.59375 488.2469Z" fill-rule="nonzero"/><path fill="#000000" d="M37.05001 258.60938L28.456263 258.60938L28.456263 256.89062L34.534386 254.85938Q35.39376 254.57812 35.815636 254.45312Q35.346886 254.3125 34.440636 254.0L28.456263 251.9375L28.456263 250.40625L37.05001 250.40625L37.05001 251.5L29.862513 251.5L37.05001 254.0L37.05001 255.03125L29.737513 257.51562L37.05001 257.51562L37.05001 258.60938ZM35.05001 245.45312L35.17501 244.35938Q36.128136 244.60938 36.659386 245.3125Q37.190636 246.01562 37.190636 247.09375Q37.190636 248.45312 36.346886 249.26562Q35.503136 250.0625 33.98751 250.0625Q32.42501 250.0625 31.565638 249.25Q30.690638 248.4375 30.690638 247.15625Q30.690638 245.90625 31.534388 245.125Q32.378136 244.32812 33.92501 244.32812Q34.01876 244.32812 34.20626 244.32812L34.20626 248.96875Q35.23751 248.90625 35.784386 248.39062Q36.315636 247.875 36.315636 247.09375Q36.315636 246.51562 36.01876 246.10938Q35.70626 245.6875 35.05001 245.45312ZM33.346886 248.90625L33.346886 245.4375Q32.55001 245.5 32.159386 245.82812Q31.550013 246.34375 31.550013 247.14062Q31.550013 247.875 32.034386 248.375Q32.51876 248.85938 33.346886 248.90625ZM36.284386 238.64062Q36.784386 239.23438 36.98751 239.78125Q37.190636 240.3125 37.190636 240.9375Q37.190636 241.96875 36.690636 242.51562Q36.190636 243.0625 35.409386 243.0625Q34.95626 243.0625 34.58126 242.85938Q34.190636 242.65625 33.971886 242.3125Q33.73751 241.96875 33.628136 241.54688Q33.534386 241.25 33.45626 240.60938Q33.315636 239.34375 33.096886 238.73438Q32.878136 238.73438 32.83126 238.73438Q32.17501 238.73438 31.909388 239.03125Q31.565638 239.4375 31.565638 240.23438Q31.565638 240.96875 31.831263 241.32812Q32.08126 241.6875 32.73751 241.85938L32.596886 242.89062Q31.940638 242.75 31.534388 242.42188Q31.128138 242.09375 30.909388 241.48438Q30.690638 240.875 30.690638 240.07812Q30.690638 239.28125 30.878138 238.78125Q31.065638 238.28125 31.346888 238.04688Q31.628138 237.8125 32.065636 237.71875Q32.33126 237.67188 33.034386 237.67188L34.440636 237.67188Q35.909386 237.67188 36.30001 237.60938Q36.690636 237.53125 37.05001 237.32812L37.05001 238.4375Q36.721886 238.59375 36.284386 238.64062ZM33.92501 238.73438Q34.159386 239.3125 34.33126 240.45312Q34.42501 241.10938 34.55001 241.375Q34.659386 241.64062 34.878136 241.79688Q35.096886 241.9375 35.378136 241.9375Q35.80001 241.9375 36.08126 241.625Q36.36251 241.29688 36.36251 240.6875Q36.36251 240.07812 36.096886 239.60938Q35.83126 239.125 35.36251 238.90625Q35.003136 238.73438 34.315636 238.73438L33.92501 238.73438ZM37.05001 235.70312L30.831263 235.70312L30.831263 234.76562L31.706263 234.76562Q30.690638 234.07812 30.690638 232.78125Q30.690638 232.21875 30.893763 231.75Q31.096888 231.26562 31.425013 231.03125Q31.753138 230.79688 32.190636 230.70312Q32.48751 230.65625 33.221886 230.65625L37.05001 230.65625L37.05001 231.70312L33.26876 231.70312Q32.61251 231.70312 32.30001 231.82812Q31.987513 231.95312 31.800013 232.26562Q31.596888 232.57812 31.596888 233.0Q31.596888 233.67188 32.034386 234.17188Q32.45626 234.65625 33.64376 234.65625L37.05001 234.65625L37.05001 235.70312Z" fill-rule="nonzero"/><path fill="#000000" d="M58.55 442.71564Q58.55 441.1844 58.8625 440.2625Q59.175 439.325 59.784374 438.825Q60.409374 438.325 61.346874 438.325Q62.034374 438.325 62.55 438.60626Q63.08125 438.8875 63.425 439.41876Q63.76875 439.9344 63.95625 440.6844Q64.14375 441.4344 64.14375 442.71564Q64.14375 444.23126 63.83125 445.15314Q63.534374 446.075 62.909374 446.59064Q62.3 447.09064 61.346874 447.09064Q60.1125 447.09064 59.39375 446.2Q58.55 445.1375 58.55 442.71564ZM59.628124 442.71564Q59.628124 444.825 60.128124 445.52814Q60.628124 446.23126 61.346874 446.23126Q62.08125 446.23126 62.565624 445.52814Q63.065624 444.825 63.065624 442.71564Q63.065624 440.59064 62.565624 439.90314Q62.08125 439.2 61.33125 439.2Q60.6125 439.2 60.175 439.8094Q59.628124 440.59064 59.628124 442.71564ZM66.14375 446.95L66.14375 445.7469L67.34688 445.7469L67.34688 446.95L66.14375 446.95ZM68.55 442.71564Q68.55 441.1844 68.8625 440.2625Q69.175 439.325 69.78438 438.825Q70.40938 438.325 71.34688 438.325Q72.03438 438.325 72.55 438.60626Q73.08125 438.8875 73.425 439.41876Q73.76875 439.9344 73.95625 440.6844Q74.14375 441.4344 74.14375 442.71564Q74.14375 444.23126 73.83125 445.15314Q73.53438 446.075 72.90938 446.59064Q72.3 447.09064 71.34688 447.09064Q70.1125 447.09064 69.39375 446.2Q68.55 445.1375 68.55 442.71564ZM69.62813 442.71564Q69.62813 444.825 70.12813 445.52814Q70.62813 446.23126 71.34688 446.23126Q72.08125 446.23126 72.56563 445.52814Q73.06563 444.825 73.06563 442.71564Q73.06563 440.59064 72.56563 439.90314Q72.08125 439.2 71.33125 439.2Q70.6125 439.2 70.175 439.8094Q69.62813 440.59064 69.62813 442.71564ZM75.55 442.71564Q75.55 441.1844 75.8625 440.2625Q76.175 439.325 76.78438 438.825Q77.40938 438.325 78.34688 438.325Q79.03438 438.325 79.55 438.60626Q80.08125 438.8875 80.425 439.41876Q80.76875 439.9344 80.95625 440.6844Q81.14375 441.4344 81.14375 442.71564Q81.14375 444.23126 80.83125 445.15314Q80.53438 446.075 79.90938 446.59064Q79.3 447.09064 78.34688 447.09064Q77.1125 447.09064 76.39375 446.2Q75.55 445.1375 75.55 442.71564ZM76.62813 442.71564Q76.62813 444.825 77.12813 445.52814Q77.62813 446.23126 78.34688 446.23126Q79.08125 446.23126 79.56563 445.52814Q80.06563 444.825 80.06563 442.71564Q80.06563 440.59064 79.56563 439.90314Q79.08125 439.2 78.33125 439.2Q77.6125 439.2 77.175 439.8094Q76.62813 440.59064 76.62813 442.71564ZM83.00313 446.95L83.00313 438.35626L89.20625 438.35626L89.20625 439.3719L84.14375 439.3719L84.14375 441.9969L88.89375 441.9969L88.89375 443.0125L84.14375 443.0125L84.14375 445.9344L89.40938 445.9344L89.40938 446.95L83.00313 446.95ZM93.05 445.5594L93.05 443.2L90.72188 443.2L90.72188 442.21564L93.05 442.21564L93.05 439.8875L94.05 439.8875L94.05 442.21564L96.39375 442.21564L96.39375 443.2L94.05 443.2L94.05 445.5594L93.05 445.5594ZM97.55 442.71564Q97.55 441.1844 97.8625 440.2625Q98.175 439.325 98.78438 438.825Q99.40938 438.325 100.34688 438.325Q101.03438 438.325 101.55 438.60626Q102.08125 438.8875 102.425 439.41876Q102.76875 439.9344 102.95625 440.6844Q103.14375 441.4344 103.14375 442.71564Q103.14375 444.23126 102.83125 445.15314Q102.53438 446.075 101.90938 446.59064Q101.3 447.09064 100.34688 447.09064Q99.1125 447.09064 98.39375 446.2Q97.55 445.1375 97.55 442.71564ZM98.62813 442.71564Q98.62813 444.825 99.12813 445.52814Q99.62813 446.23126 100.34688 446.23126Q101.08125 446.23126 101.56563 445.52814Q102.06563 444.825 102.06563 442.71564Q102.06563 440.59064 101.56563 439.90314Q101.08125 439.2 100.33125 439.2Q99.6125 439.2 99.175 439.8094Q98.62813 440.59064 98.62813 442.71564Z" fill-rule="nonzero"/><path fill="#000000" d="M67.09688 343.45938L67.09688 344.475L61.409374 344.475Q61.409374 344.1 61.534374 343.74063Q61.753124 343.1625 62.221874 342.6Q62.70625 342.0375 63.6125 341.30313Q65.01875 340.14688 65.50313 339.475Q66.00313 338.80313 66.00313 338.20938Q66.00313 337.58438 65.55 337.1625Q65.09688 336.725 64.37813 336.725Q63.6125 336.725 63.159374 337.17813Q62.70625 337.63126 62.690624 338.44376L61.6125 338.33438Q61.721874 337.11563 62.440624 336.49063Q63.175 335.85 64.40938 335.85Q65.64375 335.85 66.3625 336.5375Q67.08125 337.225 67.08125 338.24063Q67.08125 338.75626 66.8625 339.25626Q66.65938 339.74063 66.15938 340.30313Q65.675 340.85 64.55 341.80313Q63.596874 342.6 63.315624 342.89688Q63.05 343.17813 62.878124 343.45938L67.09688 343.45938ZM69.14375 344.475L69.14375 343.27188L70.34688 343.27188L70.34688 344.475L69.14375 344.475ZM71.55 340.24063Q71.55 338.70938 71.8625 337.7875Q72.175 336.85 72.78438 336.35Q73.40938 335.85 74.34688 335.85Q75.03438 335.85 75.55 336.13126Q76.08125 336.4125 76.425 336.94376Q76.76875 337.45938 76.95625 338.20938Q77.14375 338.95938 77.14375 340.24063Q77.14375 341.75626 76.83125 342.67813Q76.53438 343.6 75.90938 344.11563Q75.3 344.61563 74.34688 344.61563Q73.1125 344.61563 72.39375 343.725Q71.55 342.6625 71.55 340.24063ZM72.62813 340.24063Q72.62813 342.35 73.12813 343.05313Q73.62813 343.75626 74.34688 343.75626Q75.08125 343.75626 75.56563 343.05313Q76.06563 342.35 76.06563 340.24063Q76.06563 338.11563 75.56563 337.42813Q75.08125 336.725 74.33125 336.725Q73.6125 336.725 73.175 337.33438Q72.62813 338.11563 72.62813 340.24063ZM78.55 340.24063Q78.55 338.70938 78.8625 337.7875Q79.175 336.85 79.78438 336.35Q80.40938 335.85 81.34688 335.85Q82.03438 335.85 82.55 336.13126Q83.08125 336.4125 83.425 336.94376Q83.76875 337.45938 83.95625 338.20938Q84.14375 338.95938 84.14375 340.24063Q84.14375 341.75626 83.83125 342.67813Q83.53438 343.6 82.90938 344.11563Q82.3 344.61563 81.34688 344.61563Q80.1125 344.61563 79.39375 343.725Q78.55 342.6625 78.55 340.24063ZM79.62813 340.24063Q79.62813 342.35 80.12813 343.05313Q80.62813 343.75626 81.34688 343.75626Q82.08125 343.75626 82.56563 343.05313Q83.06563 342.35 83.06563 340.24063Q83.06563 338.11563 82.56563 337.42813Q82.08125 336.725 81.33125 336.725Q80.6125 336.725 80.175 337.33438Q79.62813 338.11563 79.62813 340.24063ZM86.00313 344.475L86.00313 335.88126L92.20625 335.88126L92.20625 336.89688L87.14375 336.89688L87.14375 339.52188L91.89375 339.52188L91.89375 340.5375L87.14375 340.5375L87.14375 343.45938L92.40938 343.45938L92.40938 344.475L86.00313 344.475ZM93.425 341.89688L93.425 340.83438L96.675 340.83438L96.675 341.89688L93.425 341.89688ZM97.55 342.20938L98.6125 342.06876Q98.78438 342.95938 99.22188 343.36563Q99.65938 343.75626 100.28438 343.75626Q101.03438 343.75626 101.55 343.24063Q102.06563 342.725 102.06563 341.95938Q102.06563 341.24063 101.58125 340.77188Q101.1125 340.2875 100.37813 340.2875Q100.08125 340.2875 99.62813 340.4125L99.75313 339.475Q99.8625 339.49063 99.925 339.49063Q100.59688 339.49063 101.12813 339.14688Q101.675 338.7875 101.675 338.05313Q101.675 337.475 101.28438 337.1Q100.89375 336.70938 100.26875 336.70938Q99.65938 336.70938 99.2375 337.1Q98.83125 337.49063 98.72188 338.25626L97.65938 338.06876Q97.84688 337.02188 98.53438 336.44376Q99.22188 335.85 100.2375 335.85Q100.94063 335.85 101.53438 336.1625Q102.12813 336.45938 102.44063 336.975Q102.75313 337.49063 102.75313 338.08438Q102.75313 338.63126 102.45625 339.1Q102.15938 339.55313 101.58125 339.81876Q102.33125 339.99063 102.75313 340.55313Q103.175 341.1 103.175 341.94376Q103.175 343.06876 102.34688 343.85Q101.53438 344.63126 100.28438 344.63126Q99.15938 344.63126 98.40938 343.95938Q97.65938 343.27188 97.55 342.20938Z" fill-rule="nonzero"/><path fill="#000000" d="M64.925 242.0L64.925 239.9375L61.20625 239.9375L61.20625 238.96875L65.12813 233.40625L65.9875 233.40625L65.9875 238.96875L67.14375 238.96875L67.14375 239.9375L65.9875 239.9375L65.9875 242.0L64.925 242.0ZM64.925 238.96875L64.925 235.10938L62.2375 238.96875L64.925 238.96875ZM69.14375 242.0L69.14375 240.79688L70.34688 240.79688L70.34688 242.0L69.14375 242.0ZM71.55 237.76562Q71.55 236.23438 71.8625 235.3125Q72.175 234.375 72.78438 233.875Q73.40938 233.375 74.34688 233.375Q75.03438 233.375 75.55 233.65625Q76.08125 233.9375 76.425 234.46875Q76.76875 234.98438 76.95625 235.73438Q77.14375 236.48438 77.14375 237.76562Q77.14375 239.28125 76.83125 240.20312Q76.53438 241.125 75.90938 241.64062Q75.3 242.14062 74.34688 242.14062Q73.1125 242.14062 72.39375 241.25Q71.55 240.1875 71.55 237.76562ZM72.62813 237.76562Q72.62813 239.875 73.12813 240.57812Q73.62813 241.28125 74.34688 241.28125Q75.08125 241.28125 75.56563 240.57812Q76.06563 239.875 76.06563 237.76562Q76.06563 235.64062 75.56563 234.95312Q75.08125 234.25 74.33125 234.25Q73.6125 234.25 73.175 234.85938Q72.62813 235.64062 72.62813 237.76562ZM78.55 237.76562Q78.55 236.23438 78.8625 235.3125Q79.175 234.375 79.78438 233.875Q80.40938 233.375 81.34688 233.375Q82.03438 233.375 82.55 233.65625Q83.08125 233.9375 83.425 234.46875Q83.76875 234.98438 83.95625 235.73438Q84.14375 236.48438 84.14375 237.76562Q84.14375 239.28125 83.83125 240.20312Q83.53438 241.125 82.90938 241.64062Q82.3 242.14062 81.34688 242.14062Q80.1125 242.14062 79.39375 241.25Q78.55 240.1875 78.55 237.76562ZM79.62813 237.76562Q79.62813 239.875 80.12813 240.57812Q80.62813 241.28125 81.34688 241.28125Q82.08125 241.28125 82.56563 240.57812Q83.06563 239.875 83.06563 237.76562Q83.06563 235.64062 82.56563 234.95312Q82.08125 234.25 81.33125 234.25Q80.6125 234.25 80.175 234.85938Q79.62813 235.64062 79.62813 237.76562ZM86.00313 242.0L86.00313 233.40625L92.20625 233.40625L92.20625 234.42188L87.14375 234.42188L87.14375 237.04688L91.89375 237.04688L91.89375 238.0625L87.14375 238.0625L87.14375 240.98438L92.40938 240.98438L92.40938 242.0L86.00313 242.0ZM93.425 239.42188L93.425 238.35938L96.675 238.35938L96.675 239.42188L93.425 239.42188ZM97.55 239.73438L98.6125 239.59375Q98.78438 240.48438 99.22188 240.89062Q99.65938 241.28125 100.28438 241.28125Q101.03438 241.28125 101.55 240.76562Q102.06563 240.25 102.06563 239.48438Q102.06563 238.76562 101.58125 238.29688Q101.1125 237.8125 100.37813 237.8125Q100.08125 237.8125 99.62813 237.9375L99.75313 237.0Q99.8625 237.01562 99.925 237.01562Q100.59688 237.01562 101.12813 236.67188Q101.675 236.3125 101.675 235.57812Q101.675 235.0 101.28438 234.625Q100.89375 234.23438 100.26875 234.23438Q99.65938 234.23438 99.2375 234.625Q98.83125 235.01562 98.72188 235.78125L97.65938 235.59375Q97.84688 234.54688 98.53438 233.96875Q99.22188 233.375 100.2375 233.375Q100.94063 233.375 101.53438 233.6875Q102.12813 233.98438 102.44063 234.5Q102.75313 235.01562 102.75313 235.60938Q102.75313 236.15625 102.45625 236.625Q102.15938 237.07812 101.58125 237.34375Q102.33125 237.51562 102.75313 238.07812Q103.175 238.625 103.175 239.46875Q103.175 240.59375 102.34688 241.375Q101.53438 242.15625 100.28438 242.15625Q99.15938 242.15625 98.40938 241.48438Q97.65938 240.79688 97.55 239.73438Z" fill-rule="nonzero"/><path fill="#000000" d="M67.01875 133.04062L65.97188 133.11874Q65.83125 132.49374 65.58125 132.2125Q65.14375 131.75937 64.51875 131.75937Q64.01875 131.75937 63.628124 132.04062Q63.14375 132.41562 62.846874 133.11874Q62.565624 133.80624 62.55 135.0875Q62.925 134.50937 63.471874 134.22812Q64.03438 133.94687 64.64375 133.94687Q65.69063 133.94687 66.425 134.72812Q67.175 135.50937 67.175 136.72812Q67.175 137.54062 66.81563 138.24374Q66.47188 138.93124 65.8625 139.30624Q65.25313 139.66562 64.4875 139.66562Q63.159374 139.66562 62.33125 138.69687Q61.503124 137.72812 61.503124 135.50937Q61.503124 133.00937 62.425 131.88437Q63.221874 130.9 64.58125 130.9Q65.59688 130.9 66.2375 131.47812Q66.89375 132.04062 67.01875 133.04062ZM62.721874 136.74374Q62.721874 137.29062 62.940624 137.79062Q63.175 138.275 63.58125 138.54062Q64.00313 138.80624 64.47188 138.80624Q65.12813 138.80624 65.6125 138.275Q66.09688 137.72812 66.09688 136.80624Q66.09688 135.91562 65.6125 135.4Q65.14375 134.88437 64.425 134.88437Q63.70625 134.88437 63.20625 135.4Q62.721874 135.91562 62.721874 136.74374ZM69.14375 139.525L69.14375 138.32187L70.34688 138.32187L70.34688 139.525L69.14375 139.525ZM71.55 135.29062Q71.55 133.75937 71.8625 132.8375Q72.175 131.9 72.78438 131.4Q73.40938 130.9 74.34688 130.9Q75.03438 130.9 75.55 131.18124Q76.08125 131.4625 76.425 131.99374Q76.76875 132.50937 76.95625 133.25937Q77.14375 134.00937 77.14375 135.29062Q77.14375 136.80624 76.83125 137.72812Q76.53438 138.65 75.90938 139.16562Q75.3 139.66562 74.34688 139.66562Q73.1125 139.66562 72.39375 138.775Q71.55 137.7125 71.55 135.29062ZM72.62813 135.29062Q72.62813 137.4 73.12813 138.10312Q73.62813 138.80624 74.34688 138.80624Q75.08125 138.80624 75.56563 138.10312Q76.06563 137.4 76.06563 135.29062Q76.06563 133.16562 75.56563 132.47812Q75.08125 131.775 74.33125 131.775Q73.6125 131.775 73.175 132.38437Q72.62813 133.16562 72.62813 135.29062ZM78.55 135.29062Q78.55 133.75937 78.8625 132.8375Q79.175 131.9 79.78438 131.4Q80.40938 130.9 81.34688 130.9Q82.03438 130.9 82.55 131.18124Q83.08125 131.4625 83.425 131.99374Q83.76875 132.50937 83.95625 133.25937Q84.14375 134.00937 84.14375 135.29062Q84.14375 136.80624 83.83125 137.72812Q83.53438 138.65 82.90938 139.16562Q82.3 139.66562 81.34688 139.66562Q80.1125 139.66562 79.39375 138.775Q78.55 137.7125 78.55 135.29062ZM79.62813 135.29062Q79.62813 137.4 80.12813 138.10312Q80.62813 138.80624 81.34688 138.80624Q82.08125 138.80624 82.56563 138.10312Q83.06563 137.4 83.06563 135.29062Q83.06563 133.16562 82.56563 132.47812Q82.08125 131.775 81.33125 131.775Q80.6125 131.775 80.175 132.38437Q79.62813 133.16562 79.62813 135.29062ZM86.00313 139.525L86.00313 130.93124L92.20625 130.93124L92.20625 131.94687L87.14375 131.94687L87.14375 134.57187L91.89375 134.57187L91.89375 135.5875L87.14375 135.5875L87.14375 138.50937L92.40938 138.50937L92.40938 139.525L86.00313 139.525ZM93.425 136.94687L93.425 135.88437L96.675 135.88437L96.675 136.94687L93.425 136.94687ZM97.55 137.25937L98.6125 137.11874Q98.78438 138.00937 99.22188 138.41562Q99.65938 138.80624 100.28438 138.80624Q101.03438 138.80624 101.55 138.29062Q102.06563 137.775 102.06563 137.00937Q102.06563 136.29062 101.58125 135.82187Q101.1125 135.3375 100.37813 135.3375Q100.08125 135.3375 99.62813 135.4625L99.75313 134.525Q99.8625 134.54062 99.925 134.54062Q100.59688 134.54062 101.12813 134.19687Q101.675 133.8375 101.675 133.10312Q101.675 132.525 101.28438 132.15Q100.89375 131.75937 100.26875 131.75937Q99.65938 131.75937 99.2375 132.15Q98.83125 132.54062 98.72188 133.30624L97.65938 133.11874Q97.84688 132.07187 98.53438 131.49374Q99.22188 130.9 100.2375 130.9Q100.94063 130.9 101.53438 131.2125Q102.12813 131.50937 102.44063 132.025Q102.75313 132.54062 102.75313 133.13437Q102.75313 133.68124 102.45625 134.15Q102.15938 134.60312 101.58125 134.86874Q102.33125 135.04062 102.75313 135.60312Q103.175 136.15 103.175 136.99374Q103.175 138.11874 102.34688 138.9Q101.53438 139.68124 100.28438 139.68124Q99.15938 139.68124 98.40938 139.00937Q97.65938 138.32187 97.55 137.25937Z" fill-rule="nonzero"/><path fill="#000000" d="M63.175 32.39375Q62.51875 32.14375 62.190624 31.70625Q61.878124 31.253124 61.878124 30.64375Q61.878124 29.70625 62.55 29.065624Q63.2375 28.425 64.34688 28.425Q65.47188 28.425 66.15938 29.08125Q66.84688 29.7375 66.84688 30.675Q66.84688 31.26875 66.53438 31.70625Q66.22188 32.14375 65.58125 32.39375Q66.37813 32.64375 66.78438 33.221874Q67.19063 33.8 67.19063 34.596874Q67.19063 35.690624 66.40938 36.440624Q65.64375 37.190624 64.3625 37.190624Q63.096874 37.190624 62.315624 36.440624Q61.534374 35.690624 61.534374 34.565624Q61.534374 33.721874 61.95625 33.159374Q62.39375 32.596874 63.175 32.39375ZM62.95625 30.596874Q62.95625 31.20625 63.346874 31.596874Q63.753124 31.9875 64.37813 31.9875Q64.9875 31.9875 65.37813 31.6125Q65.76875 31.221874 65.76875 30.659374Q65.76875 30.08125 65.3625 29.690624Q64.95625 29.284374 64.3625 29.284374Q63.753124 29.284374 63.346874 29.675Q62.95625 30.065624 62.95625 30.596874ZM62.628124 34.565624Q62.628124 35.01875 62.83125 35.440624Q63.05 35.8625 63.471874 36.096874Q63.89375 36.33125 64.37813 36.33125Q65.12813 36.33125 65.6125 35.846874Q66.1125 35.3625 66.1125 34.6125Q66.1125 33.846874 65.6125 33.346874Q65.1125 32.846874 64.34688 32.846874Q63.596874 32.846874 63.1125 33.346874Q62.628124 33.83125 62.628124 34.565624ZM69.14375 37.05L69.14375 35.846874L70.34688 35.846874L70.34688 37.05L69.14375 37.05ZM71.55 32.815624Q71.55 31.284374 71.8625 30.3625Q72.175 29.425 72.78438 28.925Q73.40938 28.425 74.34688 28.425Q75.03438 28.425 75.55 28.70625Q76.08125 28.9875 76.425 29.51875Q76.76875 30.034374 76.95625 30.784374Q77.14375 31.534374 77.14375 32.815624Q77.14375 34.33125 76.83125 35.253124Q76.53438 36.175 75.90938 36.690624Q75.3 37.190624 74.34688 37.190624Q73.1125 37.190624 72.39375 36.3Q71.55 35.2375 71.55 32.815624ZM72.62813 32.815624Q72.62813 34.925 73.12813 35.628124Q73.62813 36.33125 74.34688 36.33125Q75.08125 36.33125 75.56563 35.628124Q76.06563 34.925 76.06563 32.815624Q76.06563 30.690624 75.56563 30.003124Q75.08125 29.3 74.33125 29.3Q73.6125 29.3 73.175 29.909374Q72.62813 30.690624 72.62813 32.815624ZM78.55 32.815624Q78.55 31.284374 78.8625 30.3625Q79.175 29.425 79.78438 28.925Q80.40938 28.425 81.34688 28.425Q82.03438 28.425 82.55 28.70625Q83.08125 28.9875 83.425 29.51875Q83.76875 30.034374 83.95625 30.784374Q84.14375 31.534374 84.14375 32.815624Q84.14375 34.33125 83.83125 35.253124Q83.53438 36.175 82.90938 36.690624Q82.3 37.190624 81.34688 37.190624Q80.1125 37.190624 79.39375 36.3Q78.55 35.2375 78.55 32.815624ZM79.62813 32.815624Q79.62813 34.925 80.12813 35.628124Q80.62813 36.33125 81.34688 36.33125Q82.08125 36.33125 82.56563 35.628124Q83.06563 34.925 83.06563 32.815624Q83.06563 30.690624 82.56563 30.003124Q82.08125 29.3 81.33125 29.3Q80.6125 29.3 80.175 29.909374Q79.62813 30.690624 79.62813 32.815624ZM86.00313 37.05L86.00313 28.45625L92.20625 28.45625L92.20625 29.471874L87.14375 29.471874L87.14375 32.096874L91.89375 32.096874L91.89375 33.1125L87.14375 33.1125L87.14375 36.034374L92.40938 36.034374L92.40938 37.05L86.00313 37.05ZM93.425 34.471874L93.425 33.409374L96.675 33.409374L96.675 34.471874L93.425 34.471874ZM97.55 34.784374L98.6125 34.64375Q98.78438 35.534374 99.22188 35.940624Q99.65938 36.33125 100.28438 36.33125Q101.03438 36.33125 101.55 35.815624Q102.06563 35.3 102.06563 34.534374Q102.06563 33.815624 101.58125 33.346874Q101.1125 32.8625 100.37813 32.8625Q100.08125 32.8625 99.62813 32.9875L99.75313 32.05Q99.8625 32.065624 99.925 32.065624Q100.59688 32.065624 101.12813 31.721874Q101.675 31.3625 101.675 30.628124Q101.675 30.05 101.28438 29.675Q100.89375 29.284374 100.26875 29.284374Q99.65938 29.284374 99.2375 29.675Q98.83125 30.065624 98.72188 30.83125L97.65938 30.64375Q97.84688 29.596874 98.53438 29.01875Q99.22188 28.425 100.2375 28.425Q100.94063 28.425 101.53438 28.7375Q102.12813 29.034374 102.44063 29.55Q102.75313 30.065624 102.75313 30.659374Q102.75313 31.20625 102.45625 31.675Q102.15938 32.128124 101.58125 32.39375Q102.33125 32.565624 102.75313 33.128124Q103.175 33.675 103.175 34.51875Q103.175 35.64375 102.34688 36.425Q101.53438 37.20625 100.28438 37.20625Q99.15938 37.20625 98.40938 36.534374Q97.65938 35.846874 97.55 34.784374Z" fill-rule="nonzero"/><path fill="#000000" d="M195.13231 459.95L194.08543 459.95L194.08543 453.23126Q193.69481 453.59064 193.06981 453.96564Q192.46043 454.325 191.97606 454.4969L191.97606 453.48126Q192.85106 453.0594 193.50731 452.48126Q194.17918 451.8875 194.46043 451.325L195.13231 451.325L195.13231 459.95ZM198.16356 455.71564Q198.16356 454.1844 198.47606 453.2625Q198.78856 452.325 199.39793 451.825Q200.02293 451.325 200.96043 451.325Q201.64793 451.325 202.16356 451.60626Q202.69481 451.8875 203.03856 452.41876Q203.38231 452.9344 203.56981 453.6844Q203.75731 454.4344 203.75731 455.71564Q203.75731 457.23126 203.44481 458.15314Q203.14793 459.075 202.52293 459.59064Q201.91356 460.09064 200.96043 460.09064Q199.72606 460.09064 199.00731 459.2Q198.16356 458.1375 198.16356 455.71564ZM199.24168 455.71564Q199.24168 457.825 199.74168 458.52814Q200.24168 459.23126 200.96043 459.23126Q201.69481 459.23126 202.17918 458.52814Q202.67918 457.825 202.67918 455.71564Q202.67918 453.59064 202.17918 452.90314Q201.69481 452.2 200.94481 452.2Q200.22606 452.2 199.78856 452.8094Q199.24168 453.59064 199.24168 455.71564ZM205.16356 455.71564Q205.16356 454.1844 205.47606 453.2625Q205.78856 452.325 206.39793 451.825Q207.02293 451.325 207.96043 451.325Q208.64793 451.325 209.16356 451.60626Q209.69481 451.8875 210.03856 452.41876Q210.38231 452.9344 210.56981 453.6844Q210.75731 454.4344 210.75731 455.71564Q210.75731 457.23126 210.44481 458.15314Q210.14793 459.075 209.52293 459.59064Q208.91356 460.09064 207.96043 460.09064Q206.72606 460.09064 206.00731 459.2Q205.16356 458.1375 205.16356 455.71564ZM206.24168 455.71564Q206.24168 457.825 206.74168 458.52814Q207.24168 459.23126 207.96043 459.23126Q208.69481 459.23126 209.17918 458.52814Q209.67918 457.825 209.67918 455.71564Q209.67918 453.59064 209.17918 452.90314Q208.69481 452.2 207.94481 452.2Q207.22606 452.2 206.78856 452.8094Q206.24168 453.59064 206.24168 455.71564Z" fill-rule="nonzero"/><path fill="#000000" d="M288.74432 458.9344L288.74432 459.95L283.05682 459.95Q283.05682 459.575 283.18182 459.21564Q283.40057 458.6375 283.86932 458.075Q284.3537 457.5125 285.25995 456.77814Q286.6662 455.6219 287.15057 454.95Q287.65057 454.27814 287.65057 453.6844Q287.65057 453.0594 287.19745 452.6375Q286.74432 452.2 286.02557 452.2Q285.25995 452.2 284.80682 452.65314Q284.3537 453.10626 284.33807 453.91876L283.25995 453.8094Q283.36932 452.59064 284.08807 451.96564Q284.82245 451.325 286.05682 451.325Q287.2912 451.325 288.00995 452.0125Q288.7287 452.7 288.7287 453.71564Q288.7287 454.23126 288.50995 454.73126Q288.30682 455.21564 287.80682 455.77814Q287.32245 456.325 286.19745 457.27814Q285.24432 458.075 284.96307 458.3719Q284.69745 458.65314 284.52557 458.9344L288.74432 458.9344ZM290.19745 455.71564Q290.19745 454.1844 290.50995 453.2625Q290.82245 452.325 291.43182 451.825Q292.05682 451.325 292.99432 451.325Q293.68182 451.325 294.19745 451.60626Q294.7287 451.8875 295.07245 452.41876Q295.4162 452.9344 295.6037 453.6844Q295.7912 454.4344 295.7912 455.71564Q295.7912 457.23126 295.4787 458.15314Q295.18182 459.075 294.55682 459.59064Q293.94745 460.09064 292.99432 460.09064Q291.75995 460.09064 291.0412 459.2Q290.19745 458.1375 290.19745 455.71564ZM291.27557 455.71564Q291.27557 457.825 291.77557 458.52814Q292.27557 459.23126 292.99432 459.23126Q293.7287 459.23126 294.21307 458.52814Q294.71307 457.825 294.71307 455.71564Q294.71307 453.59064 294.21307 452.90314Q293.7287 452.2 292.9787 452.2Q292.25995 452.2 291.82245 452.8094Q291.27557 453.59064 291.27557 455.71564ZM297.19745 455.71564Q297.19745 454.1844 297.50995 453.2625Q297.82245 452.325 298.43182 451.825Q299.05682 451.325 299.99432 451.325Q300.68182 451.325 301.19745 451.60626Q301.7287 451.8875 302.07245 452.41876Q302.4162 452.9344 302.6037 453.6844Q302.7912 454.4344 302.7912 455.71564Q302.7912 457.23126 302.4787 458.15314Q302.18182 459.075 301.55682 459.59064Q300.94745 460.09064 299.99432 460.09064Q298.75995 460.09064 298.0412 459.2Q297.19745 458.1375 297.19745 455.71564ZM298.27557 455.71564Q298.27557 457.825 298.77557 458.52814Q299.27557 459.23126 299.99432 459.23126Q300.7287 459.23126 301.21307 458.52814Q301.71307 457.825 301.71307 455.71564Q301.71307 453.59064 301.21307 452.90314Q300.7287 452.2 299.9787 452.2Q299.25995 452.2 298.82245 452.8094Q298.27557 453.59064 298.27557 455.71564Z" fill-rule="nonzero"/><path fill="#000000" d="M375.23135 457.6844L376.29385 457.54376Q376.46573 458.4344 376.90323 458.84064Q377.34073 459.23126 377.96573 459.23126Q378.71573 459.23126 379.23135 458.71564Q379.74698 458.2 379.74698 457.4344Q379.74698 456.71564 379.2626 456.2469Q378.79385 455.7625 378.05948 455.7625Q377.7626 455.7625 377.30948 455.8875L377.43448 454.95Q377.54385 454.96564 377.60635 454.96564Q378.27823 454.96564 378.80948 454.6219Q379.35635 454.2625 379.35635 453.52814Q379.35635 452.95 378.96573 452.575Q378.5751 452.1844 377.9501 452.1844Q377.34073 452.1844 376.91885 452.575Q376.5126 452.96564 376.40323 453.73126L375.34073 453.54376Q375.52823 452.4969 376.21573 451.91876Q376.90323 451.325 377.91885 451.325Q378.62198 451.325 379.21573 451.6375Q379.80948 451.9344 380.12198 452.45Q380.43448 452.96564 380.43448 453.5594Q380.43448 454.10626 380.1376 454.575Q379.84073 455.02814 379.2626 455.29376Q380.0126 455.46564 380.43448 456.02814Q380.85635 456.575 380.85635 457.41876Q380.85635 458.54376 380.02823 459.325Q379.21573 460.10626 377.96573 460.10626Q376.84073 460.10626 376.09073 459.4344Q375.34073 458.7469 375.23135 457.6844ZM382.23135 455.71564Q382.23135 454.1844 382.54385 453.2625Q382.85635 452.325 383.46573 451.825Q384.09073 451.325 385.02823 451.325Q385.71573 451.325 386.23135 451.60626Q386.7626 451.8875 387.10635 452.41876Q387.4501 452.9344 387.6376 453.6844Q387.8251 454.4344 387.8251 455.71564Q387.8251 457.23126 387.5126 458.15314Q387.21573 459.075 386.59073 459.59064Q385.98135 460.09064 385.02823 460.09064Q383.79385 460.09064 383.0751 459.2Q382.23135 458.1375 382.23135 455.71564ZM383.30948 455.71564Q383.30948 457.825 383.80948 458.52814Q384.30948 459.23126 385.02823 459.23126Q385.7626 459.23126 386.24698 458.52814Q386.74698 457.825 386.74698 455.71564Q386.74698 453.59064 386.24698 452.90314Q385.7626 452.2 385.0126 452.2Q384.29385 452.2 383.85635 452.8094Q383.30948 453.59064 383.30948 455.71564ZM389.23135 455.71564Q389.23135 454.1844 389.54385 453.2625Q389.85635 452.325 390.46573 451.825Q391.09073 451.325 392.02823 451.325Q392.71573 451.325 393.23135 451.60626Q393.7626 451.8875 394.10635 452.41876Q394.4501 452.9344 394.6376 453.6844Q394.8251 454.4344 394.8251 455.71564Q394.8251 457.23126 394.5126 458.15314Q394.21573 459.075 393.59073 459.59064Q392.98135 460.09064 392.02823 460.09064Q390.79385 460.09064 390.0751 459.2Q389.23135 458.1375 389.23135 455.71564ZM390.30948 455.71564Q390.30948 457.825 390.80948 458.52814Q391.30948 459.23126 392.02823 459.23126Q392.7626 459.23126 393.24698 458.52814Q393.74698 457.825 393.74698 455.71564Q393.74698 453.59064 393.24698 452.90314Q392.7626 452.2 392.0126 452.2Q391.29385 452.2 390.85635 452.8094Q390.30948 453.59064 390.30948 455.71564Z" fill-rule="nonzero"/><path fill="#000000" d="M470.64026 459.95L470.64026 457.8875L466.9215 457.8875L466.9215 456.91876L470.84338 451.35626L471.70276 451.35626L471.70276 456.91876L472.859 456.91876L472.859 457.8875L471.70276 457.8875L471.70276 459.95L470.64026 459.95ZM470.64026 456.91876L470.64026 453.0594L467.95276 456.91876L470.64026 456.91876ZM474.26526 455.71564Q474.26526 454.1844 474.57776 453.2625Q474.89026 452.325 475.49963 451.825Q476.12463 451.325 477.06213 451.325Q477.74963 451.325 478.26526 451.60626Q478.7965 451.8875 479.14026 452.41876Q479.484 452.9344 479.6715 453.6844Q479.859 454.4344 479.859 455.71564Q479.859 457.23126 479.5465 458.15314Q479.24963 459.075 478.62463 459.59064Q478.01526 460.09064 477.06213 460.09064Q475.82776 460.09064 475.109 459.2Q474.26526 458.1375 474.26526 455.71564ZM475.34338 455.71564Q475.34338 457.825 475.84338 458.52814Q476.34338 459.23126 477.06213 459.23126Q477.7965 459.23126 478.28088 458.52814Q478.78088 457.825 478.78088 455.71564Q478.78088 453.59064 478.28088 452.90314Q477.7965 452.2 477.0465 452.2Q476.32776 452.2 475.89026 452.8094Q475.34338 453.59064 475.34338 455.71564ZM481.26526 455.71564Q481.26526 454.1844 481.57776 453.2625Q481.89026 452.325 482.49963 451.825Q483.12463 451.325 484.06213 451.325Q484.74963 451.325 485.26526 451.60626Q485.7965 451.8875 486.14026 452.41876Q486.484 452.9344 486.6715 453.6844Q486.859 454.4344 486.859 455.71564Q486.859 457.23126 486.5465 458.15314Q486.24963 459.075 485.62463 459.59064Q485.01526 460.09064 484.06213 460.09064Q482.82776 460.09064 482.109 459.2Q481.26526 458.1375 481.26526 455.71564ZM482.34338 455.71564Q482.34338 457.825 482.84338 458.52814Q483.34338 459.23126 484.06213 459.23126Q484.7965 459.23126 485.28088 458.52814Q485.78088 457.825 485.78088 455.71564Q485.78088 453.59064 485.28088 452.90314Q484.7965 452.2 484.0465 452.2Q483.32776 452.2 482.89026 452.8094Q482.34338 453.59064 482.34338 455.71564Z" fill-rule="nonzero"/><path fill="#000000" d="M559.29913 457.7L560.4085 457.60626Q560.5335 458.41876 560.971 458.825Q561.42413 459.23126 562.06476 459.23126Q562.81476 459.23126 563.346 458.65314Q563.87726 458.075 563.87726 457.1375Q563.87726 456.23126 563.36163 455.71564Q562.86163 455.1844 562.0335 455.1844Q561.5335 455.1844 561.11163 455.41876Q560.7054 455.65314 560.471 456.0125L559.48663 455.8875L560.31476 451.48126L564.596 451.48126L564.596 452.48126L561.1585 452.48126L560.7054 454.79376Q561.471 454.2469 562.31476 454.2469Q563.43976 454.2469 564.2054 455.02814Q564.98663 455.8094 564.98663 457.04376Q564.98663 458.2 564.31476 459.0594Q563.48663 460.09064 562.06476 460.09064Q560.8929 460.09064 560.1429 459.4344Q559.4085 458.77814 559.29913 457.7ZM566.29913 455.71564Q566.29913 454.1844 566.61163 453.2625Q566.92413 452.325 567.5335 451.825Q568.1585 451.325 569.096 451.325Q569.7835 451.325 570.29913 451.60626Q570.8304 451.8875 571.17413 452.41876Q571.5179 452.9344 571.7054 453.6844Q571.8929 454.4344 571.8929 455.71564Q571.8929 457.23126 571.5804 458.15314Q571.2835 459.075 570.6585 459.59064Q570.04913 460.09064 569.096 460.09064Q567.86163 460.09064 567.1429 459.2Q566.29913 458.1375 566.29913 455.71564ZM567.37726 455.71564Q567.37726 457.825 567.87726 458.52814Q568.37726 459.23126 569.096 459.23126Q569.8304 459.23126 570.31476 458.52814Q570.81476 457.825 570.81476 455.71564Q570.81476 453.59064 570.31476 452.90314Q569.8304 452.2 569.0804 452.2Q568.36163 452.2 567.92413 452.8094Q567.37726 453.59064 567.37726 455.71564ZM573.29913 455.71564Q573.29913 454.1844 573.61163 453.2625Q573.92413 452.325 574.5335 451.825Q575.1585 451.325 576.096 451.325Q576.7835 451.325 577.29913 451.60626Q577.8304 451.8875 578.17413 452.41876Q578.5179 452.9344 578.7054 453.6844Q578.8929 454.4344 578.8929 455.71564Q578.8929 457.23126 578.5804 458.15314Q578.2835 459.075 577.6585 459.59064Q577.04913 460.09064 576.096 460.09064Q574.86163 460.09064 574.1429 459.2Q573.29913 458.1375 573.29913 455.71564ZM574.37726 455.71564Q574.37726 457.825 574.87726 458.52814Q575.37726 459.23126 576.096 459.23126Q576.8304 459.23126 577.31476 458.52814Q577.81476 457.825 577.81476 455.71564Q577.81476 453.59064 577.31476 452.90314Q576.8304 452.2 576.0804 452.2Q575.36163 452.2 574.92413 452.8094Q574.37726 453.59064 574.37726 455.71564Z" fill-rule="nonzero"/><path fill="#000000" d="M656.8018 453.46564L655.75494 453.54376Q655.6143 452.91876 655.3643 452.6375Q654.9268 452.1844 654.3018 452.1844Q653.8018 452.1844 653.4112 452.46564Q652.9268 452.84064 652.62994 453.54376Q652.3487 454.23126 652.33307 455.5125Q652.70807 454.9344 653.25494 454.65314Q653.81744 454.3719 654.4268 454.3719Q655.4737 454.3719 656.20807 455.15314Q656.95807 455.9344 656.95807 457.15314Q656.95807 457.96564 656.5987 458.66876Q656.25494 459.35626 655.64557 459.73126Q655.0362 460.09064 654.27057 460.09064Q652.94244 460.09064 652.1143 459.1219Q651.2862 458.15314 651.2862 455.9344Q651.2862 453.4344 652.20807 452.3094Q653.00494 451.325 654.3643 451.325Q655.37994 451.325 656.02057 451.90314Q656.6768 452.46564 656.8018 453.46564ZM652.50494 457.16876Q652.50494 457.71564 652.7237 458.21564Q652.95807 458.7 653.3643 458.96564Q653.7862 459.23126 654.25494 459.23126Q654.9112 459.23126 655.39557 458.7Q655.87994 458.15314 655.87994 457.23126Q655.87994 456.34064 655.39557 455.825Q654.9268 455.3094 654.20807 455.3094Q653.4893 455.3094 652.9893 455.825Q652.50494 456.34064 652.50494 457.16876ZM658.33307 455.71564Q658.33307 454.1844 658.64557 453.2625Q658.95807 452.325 659.56744 451.825Q660.19244 451.325 661.12994 451.325Q661.81744 451.325 662.33307 451.60626Q662.8643 451.8875 663.20807 452.41876Q663.5518 452.9344 663.7393 453.6844Q663.9268 454.4344 663.9268 455.71564Q663.9268 457.23126 663.6143 458.15314Q663.31744 459.075 662.69244 459.59064Q662.08307 460.09064 661.12994 460.09064Q659.89557 460.09064 659.1768 459.2Q658.33307 458.1375 658.33307 455.71564ZM659.4112 455.71564Q659.4112 457.825 659.9112 458.52814Q660.4112 459.23126 661.12994 459.23126Q661.8643 459.23126 662.3487 458.52814Q662.8487 457.825 662.8487 455.71564Q662.8487 453.59064 662.3487 452.90314Q661.8643 452.2 661.1143 452.2Q660.39557 452.2 659.95807 452.8094Q659.4112 453.59064 659.4112 455.71564ZM665.33307 455.71564Q665.33307 454.1844 665.64557 453.2625Q665.95807 452.325 666.56744 451.825Q667.19244 451.325 668.12994 451.325Q668.81744 451.325 669.33307 451.60626Q669.8643 451.8875 670.20807 452.41876Q670.5518 452.9344 670.7393 453.6844Q670.9268 454.4344 670.9268 455.71564Q670.9268 457.23126 670.6143 458.15314Q670.31744 459.075 669.69244 459.59064Q669.08307 460.09064 668.12994 460.09064Q666.89557 460.09064 666.1768 459.2Q665.33307 458.1375 665.33307 455.71564ZM666.4112 455.71564Q666.4112 457.825 666.9112 458.52814Q667.4112 459.23126 668.12994 459.23126Q668.8643 459.23126 669.3487 458.52814Q669.8487 457.825 669.8487 455.71564Q669.8487 453.59064 669.3487 452.90314Q668.8643 452.2 668.1143 452.2Q667.39557 452.2 666.95807 452.8094Q666.4112 453.59064 666.4112 455.71564Z" fill-rule="nonzero"/><path fill="#000000" d="M743.42944 452.48126L743.42944 451.46564L748.99194 451.46564L748.99194 452.29376Q748.17944 453.16876 747.36694 454.6219Q746.57007 456.0594 746.13257 457.59064Q745.80444 458.66876 745.7263 459.95L744.63257 459.95Q744.6482 458.9344 745.0232 457.4969Q745.4138 456.0594 746.11694 454.73126Q746.8357 453.40314 747.6482 452.48126L743.42944 452.48126ZM750.36694 455.71564Q750.36694 454.1844 750.67944 453.2625Q750.99194 452.325 751.6013 451.825Q752.2263 451.325 753.1638 451.325Q753.8513 451.325 754.36694 451.60626Q754.8982 451.8875 755.24194 452.41876Q755.5857 452.9344 755.7732 453.6844Q755.9607 454.4344 755.9607 455.71564Q755.9607 457.23126 755.6482 458.15314Q755.3513 459.075 754.7263 459.59064Q754.11694 460.09064 753.1638 460.09064Q751.92944 460.09064 751.2107 459.2Q750.36694 458.1375 750.36694 455.71564ZM751.44507 455.71564Q751.44507 457.825 751.94507 458.52814Q752.44507 459.23126 753.1638 459.23126Q753.8982 459.23126 754.38257 458.52814Q754.88257 457.825 754.88257 455.71564Q754.88257 453.59064 754.38257 452.90314Q753.8982 452.2 753.1482 452.2Q752.42944 452.2 751.99194 452.8094Q751.44507 453.59064 751.44507 455.71564ZM757.36694 455.71564Q757.36694 454.1844 757.67944 453.2625Q757.99194 452.325 758.6013 451.825Q759.2263 451.325 760.1638 451.325Q760.8513 451.325 761.36694 451.60626Q761.8982 451.8875 762.24194 452.41876Q762.5857 452.9344 762.7732 453.6844Q762.9607 454.4344 762.9607 455.71564Q762.9607 457.23126 762.6482 458.15314Q762.3513 459.075 761.7263 459.59064Q761.11694 460.09064 760.1638 460.09064Q758.92944 460.09064 758.2107 459.2Q757.36694 458.1375 757.36694 455.71564ZM758.44507 455.71564Q758.44507 457.825 758.94507 458.52814Q759.44507 459.23126 760.1638 459.23126Q760.8982 459.23126 761.38257 458.52814Q761.88257 457.825 761.88257 455.71564Q761.88257 453.59064 761.38257 452.90314Q760.8982 452.2 760.1482 452.2Q759.42944 452.2 758.99194 452.8094Q758.44507 453.59064 758.44507 455.71564Z" fill-rule="nonzero"/></svg>